<?xml version="1.0" standalone="no"?>
<svg xmlns:xlink="http://www.w3.org/1999/xlink" id="wave" style="transform:rotate(0deg); transition: 0.3s" viewBox="0 0 1440 210" version="1.1" xmlns="http://www.w3.org/2000/svg"><defs><linearGradient id="sw-gradient-0" x1="0" x2="0" y1="1" y2="0"><stop stop-color="rgba(255, 248, 180, 1)" offset="0%"/><stop stop-color="rgba(255, 248, 180, 1)" offset="100%"/></linearGradient></defs><path style="transform:translate(0, 0px); opacity:1" fill="url(#sw-gradient-0)" d="M0,126L80,133C160,140,320,154,480,133C640,112,800,56,960,31.5C1120,7,1280,14,1440,14C1600,14,1760,7,1920,14C2080,21,2240,42,2400,45.5C2560,49,2720,35,2880,45.5C3040,56,3200,91,3360,119C3520,147,3680,168,3840,164.5C4000,161,4160,133,4320,133C4480,133,4640,161,4800,168C4960,175,5120,161,5280,147C5440,133,5600,119,5760,94.5C5920,70,6080,35,6240,28C6400,21,6560,42,6720,73.5C6880,105,7040,147,7200,143.5C7360,140,7520,91,7680,77C7840,63,8000,84,8160,87.5C8320,91,8480,77,8640,84C8800,91,8960,119,9120,129.5C9280,140,9440,133,9600,129.5C9760,126,9920,126,10080,112C10240,98,10400,70,10560,59.5C10720,49,10880,56,11040,77C11200,98,11360,133,11440,150.5L11520,168L11520,210L11440,210C11360,210,11200,210,11040,210C10880,210,10720,210,10560,210C10400,210,10240,210,10080,210C9920,210,9760,210,9600,210C9440,210,9280,210,9120,210C8960,210,8800,210,8640,210C8480,210,8320,210,8160,210C8000,210,7840,210,7680,210C7520,210,7360,210,7200,210C7040,210,6880,210,6720,210C6560,210,6400,210,6240,210C6080,210,5920,210,5760,210C5600,210,5440,210,5280,210C5120,210,4960,210,4800,210C4640,210,4480,210,4320,210C4160,210,4000,210,3840,210C3680,210,3520,210,3360,210C3200,210,3040,210,2880,210C2720,210,2560,210,2400,210C2240,210,2080,210,1920,210C1760,210,1600,210,1440,210C1280,210,1120,210,960,210C800,210,640,210,480,210C320,210,160,210,80,210L0,210Z"/></svg>