<?xml version="1.0" standalone="no"?>
<svg xmlns:xlink="http://www.w3.org/1999/xlink" id="wave" style="transform:rotate(0deg); transition: 0.3s" viewBox="0 0 1440 430" version="1.1" xmlns="http://www.w3.org/2000/svg"><defs><linearGradient id="sw-gradient-0" x1="0" x2="0" y1="1" y2="0"><stop stop-color="rgba(255, 255, 255, 1)" offset="0%"/><stop stop-color="rgba(237.106, 225.928, 202.218, 1)" offset="100%"/></linearGradient></defs><path style="transform:translate(0, 0px); opacity:1" fill="url(#sw-gradient-0)" d="M0,129L120,121.8C240,115,480,100,720,86C960,72,1200,57,1440,100.3C1680,143,1920,244,2160,236.5C2400,229,2640,115,2880,107.5C3120,100,3360,201,3600,236.5C3840,272,4080,244,4320,222.2C4560,201,4800,186,5040,215C5280,244,5520,315,5760,286.7C6000,258,6240,129,6480,64.5C6720,0,6960,0,7200,21.5C7440,43,7680,86,7920,150.5C8160,215,8400,301,8640,293.8C8880,287,9120,186,9360,121.8C9600,57,9840,29,10080,71.7C10320,115,10560,229,10800,293.8C11040,358,11280,373,11520,365.5C11760,358,12000,330,12240,315.3C12480,301,12720,301,12960,258C13200,215,13440,129,13680,121.8C13920,115,14160,186,14400,179.2C14640,172,14880,86,15120,93.2C15360,100,15600,201,15840,258C16080,315,16320,330,16560,322.5C16800,315,17040,287,17160,272.3L17280,258L17280,430L17160,430C17040,430,16800,430,16560,430C16320,430,16080,430,15840,430C15600,430,15360,430,15120,430C14880,430,14640,430,14400,430C14160,430,13920,430,13680,430C13440,430,13200,430,12960,430C12720,430,12480,430,12240,430C12000,430,11760,430,11520,430C11280,430,11040,430,10800,430C10560,430,10320,430,10080,430C9840,430,9600,430,9360,430C9120,430,8880,430,8640,430C8400,430,8160,430,7920,430C7680,430,7440,430,7200,430C6960,430,6720,430,6480,430C6240,430,6000,430,5760,430C5520,430,5280,430,5040,430C4800,430,4560,430,4320,430C4080,430,3840,430,3600,430C3360,430,3120,430,2880,430C2640,430,2400,430,2160,430C1920,430,1680,430,1440,430C1200,430,960,430,720,430C480,430,240,430,120,430L0,430Z"/></svg>